<svg width="16" height="15" viewBox="0 0 16 15" fill="none" xmlns="http://www.w3.org/2000/svg">
<g id="Property 1=cart, state=Default" clip-path="url(#clip0_11518_3329)">
<path id="Vector" d="M15.3 5.35693L11.8 5.55693L8.6 0.656934C8.5 0.456934 8.2 0.356934 8 0.356934C7.8 0.356934 7.5 0.456934 7.4 0.656934L4.2 5.55693H0.7C0.3 5.55693 0 5.85693 0 6.25693C0 6.35693 0 6.35693 0 6.45693L1.9 13.2569C2.1 13.9569 2.6 14.3569 3.3 14.3569H12.7C13.4 14.3569 13.9 13.9569 14.1 13.2569L16 6.35693C16 6.25693 16 6.25693 16 6.15693C16 5.75693 15.7 5.35693 15.3 5.35693ZM8 2.25693L10.2 5.45693H5.9L8 2.25693Z" fill="black"/>
</g>
<defs>
<clipPath id="clip0_11518_3329">
<rect width="16" height="14" fill="white" transform="translate(0 0.356934)"/>
</clipPath>
</defs>
</svg>
